<svg version="1.2" xmlns="http://www.w3.org/2000/svg" viewBox="0 0 1544 1544" width="1544" height="1544">
	<title>Instagram_logo_2022-svg</title>
	<defs>
		<radialGradient id="g1" cx="0" cy="0" r="1" gradientUnits="userSpaceOnUse" gradientTransform="matrix(-948.612,267.531,-267.531,-948.612,1493.761,724.022)">
			<stop offset="0" stop-color="#ff005f"/>
			<stop offset="1" stop-color="#fc01d8"/>
		</radialGradient>
		<radialGradient id="g2" cx="0" cy="0" r="1" gradientUnits="userSpaceOnUse" gradientTransform="matrix(0,-1231.309,1231.309,0,410.733,1662.38)">
			<stop offset="0" stop-color="#ffcc00" stop-opacity="1"/>
			<stop offset=".124" stop-color="#ffcc00" stop-opacity="1"/>
			<stop offset=".567" stop-color="#fe4a05" stop-opacity="1"/>
			<stop offset=".694" stop-color="#ff0f3f" stop-opacity="1"/>
			<stop offset="1" stop-color="#fe0657" stop-opacity="0"/>
		</radialGradient>
		<radialGradient id="g3" cx="0" cy="0" r="1" gradientUnits="userSpaceOnUse" gradientTransform="matrix(255.576,-440.366,440.366,255.576,811.265,1521.816)">
			<stop offset="0" stop-color="#ffcc00" stop-opacity="1"/>
			<stop offset="1" stop-color="#ffcc00" stop-opacity="0"/>
		</radialGradient>
		<radialGradient id="g4" cx="0" cy="0" r="1" gradientUnits="userSpaceOnUse" gradientTransform="matrix(-938.198,264.181,-264.181,-938.198,210.294,63.813)">
			<stop offset="0" stop-color="#780cff" stop-opacity="1"/>
			<stop offset="1" stop-color="#820bff" stop-opacity="0"/>
		</radialGradient>
	</defs>
	<style>
		.s0 { fill: url(#g1) } 
		.s1 { fill: url(#g2) } 
		.s2 { fill: url(#g3) } 
		.s3 { fill: url(#g4) } 
		.s4 { fill: #ffffff } 
	</style>
	<g id="Layer">
		<path id="Layer" class="s0" d="m772.5 1c-322 0-416.1 0.3-434.4 1.9-66.1 5.4-107.2 15.9-152 38.2-34.6 17.1-61.8 37-88.7 64.9-48.9 50.8-78.6 113.3-89.3 187.6-5.2 36.1-6.7 43.4-7 227.7-0.2 61.4 0 142.3 0 250.7 0 321.8 0.3 415.9 1.9 434.2 5.3 64.3 15.4 104.8 36.7 149 40.8 84.8 118.8 148.4 210.6 172.1 31.8 8.2 66.9 12.7 112 14.8 19.1 0.9 213.8 1.5 408.6 1.5 194.8 0 389.6-0.3 408.2-1.2 52.2-2.5 82.5-6.5 116-15.2 92.5-23.9 169-86.5 210.6-172.4 21-43.2 31.6-85.2 36.4-146.2 1-13.3 1.5-225.2 1.5-436.8 0-211.7-0.5-423.2-1.5-436.5-4.9-61.9-15.5-103.6-37.1-147.6-17.8-36-37.5-63-66.1-90.5-51-48.7-113.4-78.4-187.8-89.1-36-5.2-43.2-6.8-227.5-7.1z"/>
		<path id="Layer" class="s1" d="m772.5 1c-322 0-416.1 0.3-434.4 1.9-66.1 5.4-107.2 15.9-152 38.2-34.6 17.1-61.8 37-88.7 64.9-48.9 50.8-78.6 113.3-89.3 187.6-5.2 36.1-6.7 43.4-7 227.7-0.2 61.4 0 142.3 0 250.7 0 321.8 0.3 415.9 1.9 434.2 5.3 64.3 15.4 104.8 36.7 149 40.8 84.8 118.8 148.4 210.6 172.1 31.8 8.2 66.9 12.7 112 14.8 19.1 0.9 213.8 1.5 408.6 1.5 194.8 0 389.6-0.3 408.2-1.2 52.2-2.5 82.5-6.5 116-15.2 92.5-23.9 169-86.5 210.6-172.4 21-43.2 31.6-85.2 36.4-146.2 1-13.3 1.5-225.2 1.5-436.8 0-211.7-0.5-423.2-1.5-436.5-4.9-61.9-15.5-103.6-37.1-147.6-17.8-36-37.5-63-66.1-90.5-51-48.7-113.4-78.4-187.8-89.1-36-5.2-43.2-6.8-227.5-7.1z"/>
		<path id="Layer" class="s2" d="m772.5 1c-322 0-416.1 0.3-434.4 1.9-66.1 5.4-107.2 15.9-152 38.2-34.6 17.1-61.8 37-88.7 64.9-48.9 50.8-78.6 113.3-89.3 187.6-5.2 36.1-6.7 43.4-7 227.7-0.2 61.4 0 142.3 0 250.7 0 321.8 0.3 415.9 1.9 434.2 5.3 64.3 15.4 104.8 36.7 149 40.8 84.8 118.8 148.4 210.6 172.1 31.8 8.2 66.9 12.7 112 14.8 19.1 0.9 213.8 1.5 408.6 1.5 194.8 0 389.6-0.3 408.2-1.2 52.2-2.5 82.5-6.5 116-15.2 92.5-23.9 169-86.5 210.6-172.4 21-43.2 31.6-85.2 36.4-146.2 1-13.3 1.5-225.2 1.5-436.8 0-211.7-0.5-423.2-1.5-436.5-4.9-61.9-15.5-103.6-37.1-147.6-17.8-36-37.5-63-66.1-90.5-51-48.7-113.4-78.4-187.8-89.1-36-5.2-43.2-6.8-227.5-7.1z"/>
		<path id="Layer" class="s3" d="m772.5 1c-322 0-416.1 0.3-434.4 1.9-66.1 5.4-107.2 15.9-152 38.2-34.6 17.1-61.8 37-88.7 64.9-48.9 50.8-78.6 113.3-89.3 187.6-5.2 36.1-6.7 43.4-7 227.7-0.2 61.4 0 142.3 0 250.7 0 321.8 0.3 415.9 1.9 434.2 5.3 64.3 15.4 104.8 36.7 149 40.8 84.8 118.8 148.4 210.6 172.1 31.8 8.2 66.9 12.7 112 14.8 19.1 0.9 213.8 1.5 408.6 1.5 194.8 0 389.6-0.3 408.2-1.2 52.2-2.5 82.5-6.5 116-15.2 92.5-23.9 169-86.5 210.6-172.4 21-43.2 31.6-85.2 36.4-146.2 1-13.3 1.5-225.2 1.5-436.8 0-211.7-0.5-423.2-1.5-436.5-4.9-61.9-15.5-103.6-37.1-147.6-17.8-36-37.5-63-66.1-90.5-51-48.7-113.4-78.4-187.8-89.1-36-5.2-43.2-6.8-227.5-7.1z"/>
		<path id="Layer" fill-rule="evenodd" class="s4" d="m772.5 199.1c155.7 0 175.2 0.6 236.4 3.4 61 2.8 102.7 12.5 139.3 26.7 37.8 14.6 69.7 34.2 101.6 66 31.9 31.9 51.5 63.9 66.2 101.6 14.1 36.4 23.7 78.1 26.6 139.1 2.8 61.1 3.5 80.6 3.5 236.3 0 155.6-0.7 175.1-3.5 236.2-2.9 61-12.5 102.7-26.6 139.1-14.7 37.7-34.3 69.7-66.2 101.6-31.9 31.8-63.8 51.5-101.6 66.1-36.4 14.2-78.2 23.8-139.2 26.6-61.2 2.8-80.7 3.5-236.5 3.5-155.7 0-175.3-0.7-236.4-3.5-61.1-2.8-102.8-12.4-139.3-26.6-37.7-14.6-69.7-34.3-101.5-66.1-31.9-31.9-51.5-63.9-66.2-101.6-14.1-36.4-23.8-78.1-26.6-139.1-2.8-61.1-3.5-80.6-3.5-236.2 0-155.7 0.7-175.2 3.5-236.3 2.7-61 12.4-102.7 26.6-139.1 14.7-37.7 34.3-69.7 66.2-101.6 31.9-31.8 63.9-51.4 101.6-66 36.5-14.2 78.2-23.9 139.2-26.7 61.2-2.8 80.7-3.4 236.4-3.4zm-51.4 103.1c-106.8 0.1-127.4 0.8-180.3 3.2-55.9 2.6-86.2 11.9-106.5 19.8-26.7 10.4-45.8 22.8-65.9 42.9-20.1 20-32.5 39.1-42.9 65.9-7.9 20.2-17.2 50.5-19.8 106.4-2.7 60.4-3.3 78.5-3.3 231.5 0 153.1 0.6 171.2 3.3 231.6 2.6 55.9 11.9 86.2 19.8 106.4 10.4 26.8 22.8 45.8 42.9 65.9 20.1 20 39.2 32.5 65.9 42.8 20.3 7.9 50.6 17.2 106.5 19.8 60.5 2.7 78.7 3.3 231.8 3.3 153.1 0 171.3-0.6 231.8-3.3 55.9-2.6 86.2-11.9 106.4-19.8 26.8-10.3 45.9-22.8 66-42.8 20-20.1 32.5-39.1 42.9-65.9 7.8-20.1 17.2-50.5 19.7-106.3 2.8-60.5 3.4-78.6 3.4-231.5 0-153-0.6-171.1-3.4-231.6-2.5-55.8-11.9-86.2-19.7-106.3-10.4-26.8-22.9-45.9-42.9-66-20.1-20-39.2-32.4-66-42.8-20.2-7.9-50.5-17.2-106.4-19.8-60.5-2.7-78.7-3.3-231.8-3.3-19.1 0-36.2 0-51.5 0zm357.6 232.9c-38 0-68.8-30.8-68.8-68.8 0-38 30.8-68.7 68.8-68.7 38.1 0 68.9 30.7 68.9 68.7 0 38-30.8 68.8-68.9 68.8zm-306.1 531.4c-162.9 0-294.5-131.6-294.5-294.3 0-162.7 131.6-294.3 294.5-294.3 162.8 0 294.5 131.6 294.5 294.3 0 162.7-131.7 294.3-294.5 294.3zm191.2-294.3c0-105.6-85.5-191-191.2-191-105.7 0-191.2 85.4-191.2 191 0 105.7 85.5 191.1 191.2 191.1 105.7 0 191.2-85.4 191.2-191.1z"/>
	</g>
</svg>