<svg version="1.2" xmlns="http://www.w3.org/2000/svg" viewBox="0 0 1282 1450" width="1282" height="1450">
	<title>TikTok_logo-svg</title>
	<style>
		.s0 { fill: #ff004f } 
		.s1 { fill: #000000 } 
		.s2 { fill: #00f2ea } 
	</style>
	<g id="Layer">
		<path id="Layer" fill-rule="evenodd" class="s0" d="m950.1 523.4q0 0 0 0zm0 0v486.2c0 243.2-197.1 440.3-440.2 440.3-123.3 0-234.8-50.7-314.7-132.5 70 47.1 154.3 74.5 245 74.5 243.1 0 440.2-197.1 440.2-440.3v-486.2c93.6 66.9 208.1 106.2 331.9 106.2v-187.5c22.9 4.9 46.3 7.3 69.7 7.3v238.2c-123.8 0-238.4-39.3-331.9-106.2zm-66.1-465.4h66.1v30.6c6.8 74.7 38.2 142.2 86 194.4-78.7-49.1-135.4-130.1-152.1-225zm-645.8 892.9c0-111.3 90.1-201.5 201.3-201.5 20.7 0 41.4 3.2 61.1 9.5v-189.6c23.3-0.5 46.6 0.8 69.7 4v243.6c-19.8-6.3-40.4-9.5-61.1-9.5-111.2 0-201.4 90.2-201.4 201.5 0 44 14.4 86.9 41.1 121.9-65.7-33.2-110.7-101.3-110.7-179.9z"/>
		<path id="Layer" class="s1" d="m880.4 465.4c93.6 66.9 208.1 106.2 331.9 106.2v-187.5c-69.1-14.7-130.3-50.8-176.2-101.1-78.7-49.1-135.4-130.1-152.1-225h-173.5v951.5c-0.3 111-90.3 200.8-201.3 200.8-65.4 0-123.5-31.2-160.3-79.5-65.7-33.2-110.8-101.3-110.8-179.9 0-111.3 90.2-201.5 201.4-201.5 21.3 0 41.8 3.4 61.1 9.5v-189.6c-238.8 4.9-430.9 200.2-430.9 440.2 0 119.9 47.8 228.6 125.5 307.9 70 47.1 154.3 74.5 245 74.5 243.1 0 440.2-197.1 440.2-440.3v-486.2z"/>
		<path id="Layer" class="s2" d="m1212.3 384.1v-50.7c-62.3 0.1-123.4-17.4-176.2-50.4 46.7 51.3 108.4 86.6 176.2 101.1zm-328.3-326.1q-2.3-13.6-3.6-27.4v-30.6h-239.6v951.6c-0.3 110.9-90.3 200.7-201.3 200.7-32.6 0-63.4-7.7-90.6-21.5 36.8 48.3 94.9 79.5 160.3 79.5 111 0 201-89.8 201.3-200.8v-951.5zm-383.4 511.3v-54c-20-2.7-40.2-4.1-60.4-4.1-243.1 0-440.2 197.2-440.2 440.4 0 152.4 77.5 286.8 195.2 365.8-77.7-79.4-125.5-188-125.5-307.9 0-240 192.1-435.3 430.9-440.2z"/>
	</g>
</svg>