<svg version="1.2" xmlns="http://www.w3.org/2000/svg" viewBox="0 0 1542 1078" width="1542" height="1078">
	<title>YouTube_Logo_2017-svg</title>
	<style>
		.s0 { fill: #ff0000 } 
		.s1 { fill: #ffffff } 
	</style>
	<g id="Layer">
		<g id="Layer">
			<path id="Layer" class="s0" d="m1508.9 168.3c-17.7-66.3-69.9-118.3-136.2-136.1-120-32.2-601.8-32.2-601.8-32.2 0 0-481.7 0-601.8 32.2-66.3 17.8-118.4 69.8-136.2 136.1-32.2 120.1-32.2 370.6-32.2 370.6 0 0 0 250.6 32.2 370.6 17.8 66.3 69.9 118.4 136.2 136.1 120.1 32.2 601.8 32.2 601.8 32.2 0 0 481.8 0 601.8-32.2 66.3-17.7 118.5-69.8 136.2-136.1 32.2-120 32.2-370.6 32.2-370.6 0 0-0.1-250.5-32.2-370.6z"/>
			<path id="Layer" class="s1" d="m616.7 769.8l400.2-230.9-400.2-230.9z"/>
		</g>
	</g>
</svg>